;TYPE=PLATED
;Layer: PTH_Through_Via
;EasyEDA Pro v2.2.45.4, 2025-12-11 23:48:01
;Gerber Generator version 0.3
M48
METRIC,LZ,0000.00000
;Hole size 1 = 0.30500 METRIC
T01C0.30500
%
G05
G90
T01
X270.36503Y-179.96601
X268.36504Y-174.46602
X252.03409Y-182.46601
X289.83501Y-169.16403
X257.54387Y-155.78889
X241.57705Y-165.77401
X226.07708Y-161.77402
X284.18301Y-188.85398
X234.03896Y-165.60904
X237.03895Y-164.60904
X275.36413Y-166.28887
X277.36412Y-170.78886
X279.36412Y-179.28885
X283.68428Y-176.60902
X236.06931Y-159.15401
X282.52413Y-166.28887
X282.02413Y-171.28886
X280.02414Y-173.28886
X274.52415Y-179.28885
X279.98413Y-176.78885
X276.48414Y-182.78884
X269.11001Y-165.45474
X271.11001Y-199.45467
X272.61Y-202.95466
X275.40413Y-210.78878
X264.28414Y-186.78883
X266.78413Y-188.78883
X271.78412Y-196.28881
X277.78411Y-202.7888
X277.78411Y-210.96204
X266.74413Y-196.28881
X274.24411Y-202.7888
X289.94411Y-158.88884
X290.9441Y-169.88881
X288.60413Y-161.78888
X277.94966Y-180.46601
X216.45325Y-175.16401
X210.45326Y-172.16402
X202.29788Y-162.14702
M30