;TYPE=PLATED
;Layer: PTH_Through
;EasyEDA Pro v2.2.45.4, 2025-12-11 23:48:01
;Gerber Generator version 0.3
M48
METRIC,LZ,0000.00000
;Hole size 1 = 0.30500 METRIC
T01C0.30500
;Hole size 2 = 0.70002 METRIC
T02C0.70002
;Hole size 3 = 0.71120 METRIC
T03C0.71120
;Hole size 4 = 0.80000 METRIC
T04C0.80000
;Hole size 5 = 0.81280 METRIC
T05C0.81280
;Hole size 6 = 0.91440 METRIC
T06C0.91440
;Hole size 7 = 1.00000 METRIC
T07C1.00000
;Hole size 8 = 1.20000 METRIC
T08C1.20000
;Hole size 9 = 1.30002 METRIC
T09C1.30002
;Hole size 10 = 1.40000 METRIC
T10C1.40000
;Hole size 11 = 1.50002 METRIC
T11C1.50002
;Hole size 12 = 1.52400 METRIC
T12C1.52400
;Hole size 13 = 1.60000 METRIC
T13C1.60000
;Hole size 14 = 3.45000 METRIC
T14C3.45000
%
G05
G90
T01
X270.36503Y-179.96601
X268.36504Y-174.46602
X252.03409Y-182.46601
X289.83501Y-169.16403
X257.54387Y-155.78889
X241.57705Y-165.77401
X226.07708Y-161.77402
X284.18301Y-188.85398
X234.03896Y-165.60904
X237.03895Y-164.60904
X275.36413Y-166.28887
X277.36412Y-170.78886
X279.36412Y-179.28885
X283.68428Y-176.60902
X236.06931Y-159.15401
X282.52413Y-166.28887
X282.02413Y-171.28886
X280.02414Y-173.28886
X274.52415Y-179.28885
X279.98413Y-176.78885
X276.48414Y-182.78884
X269.11001Y-165.45474
X271.11001Y-199.45467
X272.61Y-202.95466
X275.40413Y-210.78878
X264.28414Y-186.78883
X266.78413Y-188.78883
X271.78412Y-196.28881
X277.78411Y-202.7888
X277.78411Y-210.96204
X266.74413Y-196.28881
X274.24411Y-202.7888
X289.94411Y-158.88884
X290.9441Y-169.88881
X288.60413Y-161.78888
X277.94966Y-180.46601
X216.45325Y-175.16401
X210.45326Y-172.16402
X202.29788Y-162.14702
T02
X286.683Y-172.85401
X286.683Y-174.12401
X286.683Y-175.39401
X300.95Y-176.66401
X290.45Y-176.66401
X300.95Y-173.48901
X290.45Y-173.48901
X268.36504Y-167.77401
X268.36504Y-169.04401
X268.36504Y-170.31401
X250.07704Y-167.77401
X250.07704Y-169.04401
X250.07704Y-170.31401
X231.78904Y-167.77401
X231.78904Y-169.04401
X231.78904Y-170.31401
X213.62804Y-167.77401
X213.62804Y-169.04401
X213.62804Y-170.31401
X195.34004Y-167.77401
X195.34004Y-169.04401
X195.34004Y-170.31401
X177.81404Y-167.77401
X177.81404Y-169.04401
X177.81404Y-170.31401
X160.572Y-167.77401
X160.572Y-169.04401
X160.572Y-170.31401
X282.09959Y-176.66401
X271.59958Y-176.66401
X282.09959Y-173.48901
X271.59958Y-173.48901
X263.88416Y-176.66401
X253.38415Y-176.66401
X263.88416Y-173.48901
X253.38415Y-173.48901
X245.66873Y-176.66401
X235.16872Y-176.66401
X245.66873Y-173.48901
X235.16872Y-173.48901
X227.4533Y-176.66401
X216.9533Y-176.66401
X227.4533Y-173.48901
X216.9533Y-173.48901
X209.23787Y-176.66401
X198.73787Y-176.66401
X209.23787Y-173.48901
X198.73787Y-173.48901
X191.02244Y-176.66401
X180.52244Y-176.66401
X191.02244Y-173.48901
X180.52244Y-173.48901
X172.80702Y-176.66401
X162.30701Y-176.66401
X172.80702Y-173.48901
X162.30701Y-173.48901
T03
X212.134Y-137.29401
X209.594Y-137.29401
X207.054Y-137.29401
X204.514Y-137.29401
T04
X290.83801Y-179.96601
X299.03799Y-179.96601
X272.74959Y-179.96601
X280.94958Y-179.96601
X254.53416Y-179.96601
X262.73415Y-179.96601
X236.31873Y-179.96601
X244.51872Y-179.96601
X218.10331Y-179.96601
X226.30329Y-179.96601
X199.88788Y-179.96601
X208.08786Y-179.96601
X181.67245Y-179.96601
X189.87243Y-179.96601
X163.45702Y-179.96601
X171.657Y-179.96601
T05
X231.819Y-160.15401
X234.3082Y-160.15401
X229.3298Y-160.15401
T06
X254.04387Y-160.76602G85X254.04387Y-160.81174
X256.58375Y-160.78914
X259.12375Y-160.78914
X261.66375Y-160.78914
X264.20375Y-160.78914
X266.74375Y-160.78914
X269.28375Y-160.78914
X271.82375Y-160.78914
X274.36375Y-160.78914
X276.90375Y-160.78914
X279.44375Y-160.78914
X281.98375Y-160.78914
X284.52375Y-160.78914
X287.06375Y-160.78914
X289.60375Y-160.78914
X289.60375Y-135.38914
X287.06375Y-135.38914
X284.52375Y-135.38914
X281.98375Y-135.38914
X279.44375Y-135.38914
X276.90375Y-135.38914
X274.36375Y-135.38914
X271.82375Y-135.38914
X269.28375Y-135.38914
X266.74375Y-135.38914
X264.20375Y-135.38914
X261.66375Y-135.38914
X259.12375Y-135.38914
X256.58375Y-135.38914
X254.04375Y-135.38914
X281.60999Y-214.63615
X279.10999Y-214.63615
X276.61Y-214.63615
X274.11Y-214.63615
X271.61001Y-214.63615
X269.11001Y-214.63615
X266.61002Y-214.63615
X264.11002Y-214.63615
X284.10985Y-214.63615
T07
X286.556Y-166.88501
X286.556Y-169.42501
X294.176Y-166.88501
X294.176Y-169.42501
X268.776Y-181.10901
X268.776Y-178.56901
X250.488Y-181.10901
X250.488Y-178.56901
X232.2Y-181.10901
X232.2Y-178.56901
X214.039Y-181.10901
X214.039Y-178.56901
X195.751Y-181.10901
X195.751Y-178.56901
X177.59Y-181.10901
X177.59Y-178.56901
X159.429Y-181.10901
X159.429Y-178.56901
X273.03958Y-167.64701
X273.03958Y-170.18701
X280.65958Y-167.64701
X280.65958Y-170.18701
X254.82416Y-167.64701
X254.82416Y-170.18701
X262.44416Y-167.64701
X262.44416Y-170.18701
X236.60873Y-167.64701
X236.60873Y-170.18701
X244.22873Y-167.64701
X244.22873Y-170.18701
X218.3933Y-167.64701
X218.3933Y-170.18701
X226.0133Y-167.64701
X226.0133Y-170.18701
X200.17787Y-167.64701
X200.17787Y-170.18701
X207.79787Y-167.64701
X207.79787Y-170.18701
X181.96244Y-167.64701
X181.96244Y-170.18701
X189.58244Y-167.64701
X189.58244Y-170.18701
X165.14401Y-167.64701
X165.14401Y-170.18701
X172.76401Y-167.64701
X172.76401Y-170.18701
X223.2465Y-160.15401
X220.95542Y-160.15401
X218.5475Y-160.15401
X199.942Y-160.15401
X202.482Y-160.15401
X286.81Y-181.10901
X286.81Y-178.56901
T08
X192.35807Y-161.40702
X192.35807Y-143.40703
X158.75806Y-155.407
X158.75806Y-149.40702
X227.90951Y-135.89701
X223.40949Y-135.89701
T09
X176.955Y-216.59599
X182.035Y-216.59599
T10
X243.43968Y-216.79598
T11
X222.15951Y-138.43701
X229.15949Y-138.43701
T12
X286.39852Y-198.87695
X292.398Y-184.677
X298.39799Y-186.67702
X286.39801Y-186.67702
X298.39748Y-198.87702
X268.18309Y-198.87695
X274.18257Y-184.677
X280.18256Y-186.67702
X268.18258Y-186.67702
X280.18205Y-198.87702
X249.96766Y-198.87695
X255.96714Y-184.677
X261.96713Y-186.67702
X249.96716Y-186.67702
X261.96662Y-198.87702
X231.75223Y-198.87695
X237.75171Y-184.677
X243.7517Y-186.67702
X231.75173Y-186.67702
X243.75119Y-198.87702
X213.53681Y-198.87695
X219.53629Y-184.677
X225.53627Y-186.67702
X213.5363Y-186.67702
X225.53577Y-198.87702
X195.32138Y-198.87695
X201.32086Y-184.677
X207.32085Y-186.67702
X195.32087Y-186.67702
X207.32034Y-198.87702
X177.10595Y-198.87695
X183.10543Y-184.677
X189.10542Y-186.67702
X177.10544Y-186.67702
X189.10491Y-198.87702
X158.89052Y-198.87695
X164.89Y-184.677
X170.88999Y-186.67702
X158.89001Y-186.67702
X170.88948Y-198.87702
T13
X238.35968Y-216.79598
X228.19968Y-216.79598
X223.11968Y-216.79598
X207.87968Y-216.79596
X212.95968Y-216.79598
X218.03968Y-216.79598
X233.27968Y-216.79598
T14
X153.968Y-137.16701
X298.367Y-137.16701
X153.968Y-218.44701
X298.367Y-218.44701
M30