G04 Layer: BottomSolderMaskLayer*
G04 EasyEDA Pro v2.2.45.4, 2025-12-11 23:48:00*
G04 Gerber Generator version 0.3*
G04 Scale: 100 percent, Rotated: No, Reflected: No*
G04 Dimensions in millimeters*
G04 Leading zeros omitted, absolute positions, 4 integers and 5 decimals*
G04 Generated by one-click*
%FSLAX45Y45*%
%MOMM*%
%AMRoundRect*1,1,$1,$2,$3*1,1,$1,$4,$5*1,1,$1,0-$2,0-$3*1,1,$1,0-$4,0-$5*20,1,$1,$2,$3,$4,$5,0*20,1,$1,$4,$5,0-$2,0-$3,0*20,1,$1,0-$2,0-$3,0-$4,0-$5,0*20,1,$1,0-$4,0-$5,$2,$3,0*4,1,4,$2,$3,$4,$5,0-$2,0-$3,0-$4,0-$5,$2,$3,0*%
%ADD10C,5.0*%
%ADD11C,4.0*%
%ADD12C,1.7016*%
%ADD13O,1.7016X1.0016*%
%ADD14RoundRect,0.09224X-0.80468X-0.45468X-0.80468X0.45468*%
%ADD15C,1.5016*%
%ADD16C,2.8956*%
%ADD17O,2.1016X1.6256*%
%ADD18RoundRect,0.1011X-0.80286X-0.80286X-0.80286X0.80286*%
%ADD19RoundRect,0.09588X-0.80286X-0.80286X-0.80286X0.80286*%
%ADD20RoundRect,0.18181X-0.77269X-0.77269X-0.77269X0.77269*%
%ADD21C,1.7272*%
%ADD22C,2.50002*%
%ADD23C,2.1016*%
%ADD24RoundRect,0.09471X-0.65114X0.65114X0.65114X0.65114*%
%ADD25C,1.397*%
%ADD26RoundRect,0.0943X-0.60944X-1.09458X-0.60944X1.09458*%
%ADD27C,1.6256*%
%ADD28RoundRect,0.09562X-0.76499X0.76499X0.76499X0.76499*%
%ADD29C,1.9016*%
%ADD30C,2.3016*%
%ADD31C,1.624*%
%ADD32RoundRect,0.0942X-0.7649X0.7649X0.7649X0.7649*%
%ADD33C,5.5016*%
G75*


G04 PolygonModel Start*
G54D10*
G01X15320600Y-20231801D02*
G01X15320600Y-15202601D01*
G01X15320600Y-15202601D02*
G01X15582499Y-14940702D01*
G01X16184200Y-21095401D02*
G01X15320600Y-20231801D01*
G01X15582499Y-14940702D02*
G01X15875806Y-14940702D01*
G01X18074779Y-21095401D02*
G01X16184200Y-21095401D01*
G01X18203500Y-21224122D02*
G01X18074779Y-21095401D01*
G01X18203500Y-21659599D02*
G01X18203500Y-21224122D01*
G01X29239800Y-18467695D02*
G01X29239800Y-18999901D01*
G01X29239800Y-18999901D02*
G01X28985800Y-19253901D01*
G01X28985800Y-19253901D02*
G01X27423428Y-19253901D01*
G54D11*
G01X27418257Y-18467695D02*
G01X27418257Y-19248731D01*
G01X27418257Y-19248731D02*
G01X27423428Y-19253901D01*
G01X23775171Y-18467695D02*
G01X23775171Y-19228662D01*
G01X23775171Y-19228662D02*
G01X23800411Y-19253901D01*
G01X25596714Y-19166815D02*
G01X25658400Y-19228501D01*
G01X25596714Y-18467695D02*
G01X25596714Y-19166815D01*
G01X16489000Y-18480395D02*
G01X16489000Y-19228501D01*
G01X16501700Y-18467695D02*
G01X16489000Y-18480395D01*
G01X18310543Y-18467695D02*
G01X18310543Y-19233171D01*
G01X18310543Y-19233171D02*
G01X18331273Y-19253901D01*
G01X20132086Y-18467695D02*
G01X20132086Y-19223369D01*
G01X20132086Y-19223369D02*
G01X20101553Y-19253901D01*
G54D10*
G01X20101553Y-19253901D02*
G01X18331273Y-19253901D01*
G01X18331273Y-19253901D02*
G01X15371400Y-19253901D01*
G01X21953629Y-19253901D02*
G01X20101553Y-19253901D01*
G54D11*
G01X21953629Y-18467695D02*
G01X21953629Y-19253901D01*
G54D10*
G01X23800411Y-19253901D02*
G01X21953629Y-19253901D01*
G01X27423428Y-19253901D02*
G01X23800411Y-19253901D01*
G54D11*
G01X20946700Y-21006501D02*
G01X19562400Y-21006501D01*
G01X19562400Y-21006501D02*
G01X19003600Y-20447701D01*
G01X21295953Y-21355754D02*
G01X20946700Y-21006501D01*
G01X19003600Y-20447701D02*
G01X18114600Y-20447701D01*
G01X21295953Y-21679601D02*
G01X21295953Y-21355754D01*
G01X18114600Y-20447701D02*
G01X17710595Y-20043696D01*
G01X17710595Y-20043696D02*
G01X17710595Y-19887707D01*
G01X22311953Y-21679601D02*
G01X22311953Y-20845979D01*
G01X22311953Y-20845979D02*
G01X21353681Y-19887707D01*
G01X23924317Y-20517551D02*
G01X23327953Y-21113916D01*
G01X23327953Y-21113916D02*
G01X23327953Y-21679601D01*
G01X24686850Y-20517551D02*
G01X23924317Y-20517551D01*
G01X24996766Y-20207635D02*
G01X24686850Y-20517551D01*
G01X24996766Y-19887707D02*
G01X24996766Y-20207635D01*
G01X25683800Y-20587401D02*
G01X24591600Y-21679601D01*
G01X24591600Y-21679601D02*
G01X24343953Y-21679601D01*
G01X28325400Y-20587401D02*
G01X25683800Y-20587401D01*
G01X28639852Y-20272949D02*
G01X28325400Y-20587401D01*
G01X28639852Y-19887707D02*
G01X28639852Y-20272949D01*
G36*
G01X21753629Y-18467695D02*
G02X21203629Y-19003901I-550000J13971D01*
G01X21953629Y-19253901D01*
G01X22703629Y-19003901D01*
G02X22153629Y-18467695I0J550177D01*
G01X21753629Y-18467695D01*
G37*
G36*
G01X20332086Y-18467695D02*
G03X20882086Y-19003901I550000J13971D01*
G01X20101553Y-19253901D01*
G01X19382086Y-19003901D01*
G03X19932086Y-18467695I0J550177D01*
G01X20332086Y-18467695D01*
G37*
G36*
G01X18110543Y-18467695D02*
G02X17560543Y-19003901I-550000J13971D01*
G01X18331273Y-19253901D01*
G01X19060543Y-19003901D01*
G02X18510543Y-18467695I0J550177D01*
G01X18110543Y-18467695D01*
G37*
G36*
G01X16689000Y-18480395D02*
G03X17239000Y-19003901I550000J27164D01*
G01X16489000Y-19253901D01*
G01X15739000Y-19003901D01*
G03X16289000Y-18480395I0J550670D01*
G01X16689000Y-18480395D01*
G37*
G36*
G01X23575171Y-18467695D02*
G02X23025171Y-19003901I-550000J13971D01*
G01X23800411Y-19253901D01*
G01X24525171Y-19003901D01*
G02X23975172Y-18467695I0J550177D01*
G01X23575172Y-18467695D01*
G37*
G36*
G01X25796714Y-18467695D02*
G03X26346714Y-19003901I550000J13971D01*
G01X25596714Y-19253901D01*
G01X24846714Y-19003901D01*
G03X25396715Y-18467695I0J550177D01*
G01X25796714Y-18467695D01*
G37*
G36*
G01X27218257Y-18467695D02*
G02X26668257Y-19003901I-550000J13971D01*
G01X27423428Y-19253901D01*
G01X28168257Y-19003901D01*
G02X27618257Y-18467695I0J550177D01*
G01X27218257Y-18467695D01*
G37*

G04 Pad Start*
G54D12*
G01X29083793Y-17996601D03*
G01X29903807Y-17996601D03*
G54D13*
G01X28668300Y-17285401D03*
G01X28668300Y-17412401D03*
G54D14*
G01X28668300Y-17539401D03*
G54D15*
G01X30094993Y-17666401D03*
G01X29045007Y-17666401D03*
G01X30094993Y-17348901D03*
G01X29045007Y-17348901D03*
G54D16*
G01X28639852Y-19887707D03*
G01X29239800Y-18467695D03*
G01X29839799Y-18667694D03*
G01X28639801Y-18667694D03*
G01X29839748Y-19887707D03*
G54D17*
G01X28655600Y-16688501D03*
G01X28655600Y-16942501D03*
G01X29417600Y-16688501D03*
G01X29417600Y-16942501D03*
G54D12*
G01X27274952Y-17996601D03*
G01X28094965Y-17996601D03*
G01X25453409Y-17996601D03*
G01X26273422Y-17996601D03*
G01X23631866Y-17996601D03*
G01X24451879Y-17996601D03*
G01X21810323Y-17996601D03*
G01X22630337Y-17996601D03*
G01X19988780Y-17996601D03*
G01X20808794Y-17996601D03*
G01X18167237Y-17996601D03*
G01X18987251Y-17996601D03*
G01X16345695Y-17996601D03*
G01X17165708Y-17996601D03*
G01X26877600Y-18110901D03*
G54D19*
G01X26877600Y-17856901D03*
G54D12*
G01X25048800Y-18110901D03*
G54D19*
G01X25048800Y-17856901D03*
G54D12*
G01X23220000Y-18110901D03*
G54D19*
G01X23220000Y-17856901D03*
G54D12*
G01X21403900Y-18110901D03*
G54D19*
G01X21403900Y-17856901D03*
G54D12*
G01X19575100Y-18110901D03*
G54D19*
G01X19575100Y-17856901D03*
G54D12*
G01X17759000Y-18110901D03*
G54D19*
G01X17759000Y-17856901D03*
G54D12*
G01X15942900Y-18110901D03*
G54D19*
G01X15942900Y-17856901D03*
G54D13*
G01X26836504Y-16777401D03*
G01X26836504Y-16904401D03*
G54D14*
G01X26836504Y-17031401D03*
G54D13*
G01X25007704Y-16777401D03*
G01X25007704Y-16904401D03*
G54D14*
G01X25007704Y-17031401D03*
G54D13*
G01X23178904Y-16777401D03*
G01X23178904Y-16904401D03*
G54D14*
G01X23178904Y-17031401D03*
G54D13*
G01X21362804Y-16777401D03*
G01X21362804Y-16904401D03*
G54D14*
G01X21362804Y-17031401D03*
G54D13*
G01X19534004Y-16777401D03*
G01X19534004Y-16904401D03*
G54D14*
G01X19534004Y-17031401D03*
G54D13*
G01X17781404Y-16777401D03*
G01X17781404Y-16904401D03*
G54D14*
G01X17781404Y-17031401D03*
G54D13*
G01X16057200Y-16777401D03*
G01X16057200Y-16904401D03*
G54D14*
G01X16057200Y-17031401D03*
G54D15*
G01X28209951Y-17666401D03*
G01X27159966Y-17666401D03*
G01X28209951Y-17348901D03*
G01X27159966Y-17348901D03*
G01X26388408Y-17666401D03*
G01X25338423Y-17666401D03*
G01X26388408Y-17348901D03*
G01X25338423Y-17348901D03*
G01X24566865Y-17666401D03*
G01X23516880Y-17666401D03*
G01X24566865Y-17348901D03*
G01X23516880Y-17348901D03*
G01X22745323Y-17666401D03*
G01X21695337Y-17666401D03*
G01X22745323Y-17348901D03*
G01X21695337Y-17348901D03*
G01X20923780Y-17666401D03*
G01X19873794Y-17666401D03*
G01X20923780Y-17348901D03*
G01X19873794Y-17348901D03*
G01X19102237Y-17666401D03*
G01X18052252Y-17666401D03*
G01X19102237Y-17348901D03*
G01X18052252Y-17348901D03*
G01X17280694Y-17666401D03*
G01X16230709Y-17666401D03*
G01X17280694Y-17348901D03*
G01X16230709Y-17348901D03*
G54D16*
G01X26818309Y-19887707D03*
G01X27418257Y-18467695D03*
G01X28018256Y-18667694D03*
G01X26818258Y-18667694D03*
G01X28018205Y-19887707D03*
G01X24996766Y-19887707D03*
G01X25596714Y-18467695D03*
G01X26196713Y-18667694D03*
G01X24996716Y-18667694D03*
G01X26196662Y-19887707D03*
G01X23175223Y-19887707D03*
G01X23775171Y-18467695D03*
G01X24375170Y-18667694D03*
G01X23175173Y-18667694D03*
G01X24375119Y-19887707D03*
G01X21353681Y-19887707D03*
G01X21953629Y-18467695D03*
G01X22553627Y-18667694D03*
G01X21353630Y-18667694D03*
G01X22553577Y-19887707D03*
G01X19532138Y-19887707D03*
G01X20132086Y-18467695D03*
G01X20732085Y-18667694D03*
G01X19532087Y-18667694D03*
G01X20732034Y-19887707D03*
G01X17710595Y-19887707D03*
G01X18310543Y-18467695D03*
G01X18910542Y-18667694D03*
G01X17710544Y-18667694D03*
G01X18910491Y-19887707D03*
G01X15889052Y-19887707D03*
G01X16489000Y-18467695D03*
G01X17088999Y-18667694D03*
G01X15889001Y-18667694D03*
G01X17088948Y-19887707D03*
G54D17*
G01X27303958Y-16764701D03*
G01X27303958Y-17018701D03*
G01X28065958Y-16764701D03*
G01X28065958Y-17018701D03*
G01X25482416Y-16764701D03*
G01X25482416Y-17018701D03*
G01X26244416Y-16764701D03*
G01X26244416Y-17018701D03*
G01X23660873Y-16764701D03*
G01X23660873Y-17018701D03*
G01X24422873Y-16764701D03*
G01X24422873Y-17018701D03*
G01X21839330Y-16764701D03*
G01X21839330Y-17018701D03*
G01X22601330Y-16764701D03*
G01X22601330Y-17018701D03*
G01X20017787Y-16764701D03*
G01X20017787Y-17018701D03*
G01X20779787Y-16764701D03*
G01X20779787Y-17018701D03*
G01X18196244Y-16764701D03*
G01X18196244Y-17018701D03*
G01X18958244Y-16764701D03*
G01X18958244Y-17018701D03*
G01X16514401Y-16764701D03*
G01X16514401Y-17018701D03*
G01X17276401Y-16764701D03*
G01X17276401Y-17018701D03*
G54D20*
G01X25404387Y-16078888D03*
G54D21*
G01X25658413Y-16078888D03*
G01X25912413Y-16078888D03*
G01X26166413Y-16078888D03*
G01X26420413Y-16078888D03*
G01X26674413Y-16078888D03*
G01X26928413Y-16078888D03*
G01X27182413Y-16078888D03*
G01X27436413Y-16078888D03*
G01X27690413Y-16078888D03*
G01X27944413Y-16078888D03*
G01X28198413Y-16078888D03*
G01X28452413Y-16078888D03*
G01X28706413Y-16078888D03*
G01X28960413Y-16078888D03*
G01X28960413Y-13538888D03*
G01X28706413Y-13538888D03*
G01X28452413Y-13538888D03*
G01X28198413Y-13538888D03*
G01X27944413Y-13538888D03*
G01X27690413Y-13538888D03*
G01X27436413Y-13538888D03*
G01X27182413Y-13538888D03*
G01X26928413Y-13538888D03*
G01X26674413Y-13538888D03*
G01X26420413Y-13538888D03*
G01X26166413Y-13538888D03*
G01X25912413Y-13538888D03*
G01X25658413Y-13538888D03*
G01X25404413Y-13538888D03*
G54D22*
G01X24343953Y-21679601D03*
G01X23835953Y-21679601D03*
G01X22819953Y-21679601D03*
G01X22311953Y-21679601D03*
G01X20787953Y-21679598D03*
G01X21295953Y-21679601D03*
G01X21803953Y-21679601D03*
G01X23327953Y-21679601D03*
G54D23*
G01X17695500Y-21659599D03*
G01X18203500Y-21659599D03*
G01X19235794Y-16140699D03*
G01X19235794Y-14340703D03*
G01X15875806Y-15540700D03*
G01X15875806Y-14940702D03*
G54D24*
G01X21213400Y-13729401D03*
G54D25*
G01X20959400Y-13729401D03*
G01X20705400Y-13729401D03*
G01X20451400Y-13729401D03*
G54D26*
G01X23181900Y-16015401D03*
G01X23430820Y-16015401D03*
G01X22932980Y-16015401D03*
G54D27*
G01X22324650Y-16015401D03*
G01X22095542Y-16015401D03*
G54D28*
G01X21854750Y-16015401D03*
G54D29*
G01X22790956Y-13589701D03*
G01X22340944Y-13589701D03*
G54D30*
G01X22215951Y-13843701D03*
G01X22915949Y-13843701D03*
G54D12*
G01X19994200Y-16015401D03*
G01X20248200Y-16015401D03*
G01X28681000Y-18110901D03*
G54D19*
G01X28681000Y-17856901D03*
G54D31*
G01X28161011Y-21463615D03*
G01X27910999Y-21463615D03*
G01X27661012Y-21463615D03*
G01X27411000Y-21463615D03*
G01X27161013Y-21463615D03*
G01X26911001Y-21463615D03*
G01X26661014Y-21463615D03*
G54D32*
G01X26411002Y-21463615D03*
G54D31*
G01X28410998Y-21463615D03*
G54D33*
G01X15396800Y-13716701D03*
G01X29836700Y-13716701D03*
G01X15396800Y-21844701D03*
G01X29836700Y-21844701D03*
G04 Pad End*

M02*

