G04 Layer: DrillDrawingLayer*
G04 EasyEDA Pro v2.2.45.4, 2025-12-11 23:48:00*
G04 Gerber Generator version 0.3*
G04 Scale: 100 percent, Rotated: No, Reflected: No*
G04 Dimensions in millimeters*
G04 Leading zeros omitted, absolute positions, 4 integers and 5 decimals*
G04 Generated by one-click*
%FSLAX45Y45*%
%MOMM*%
%AMIconRect*4,1,4,0.28,-0.28,-0.28,-0.28,-0.28,0.28,0.28,0.28,0.28,-0.28,0*4,0,4,0.233333,-0.233333,0.233333,0.233333,-0.233333,0.233333,-0.233333,-0.233333,0.233333,-0.233333,0*%
%AMIconTriangle*4,1,3,-0.339593,0.240473,0.339593,0.240473,0,-0.37884,-0.339593,0.240473,0*4,0,3,-0.265673,0.19404,0,-0.27342,0.266233,0.19404,-0.265673,0.19404,0*%
%AMIconStar6*4,1,12,0.12068,0.20888,0.298527,0.172713,0.241313,0,0.298527,-0.17206,0.12068,-0.208227,0,-0.344073,-0.120073,-0.208227,-0.298573,-0.17206,-0.240707,0,-0.298573,0.17206,-0.120073,0.20888,0,0.344073,0.12068,0.20888,0*4,0,12,-0.000467,0.273467,-0.090067,0.171733,-0.237533,0.136733,-0.193667,-0.007467,-0.237533,-0.1372,-0.090067,-0.171733,-0.000467,-0.273933,0.090067,-0.171733,0.237533,-0.1372,0.194133,0.007,0.237533,0.1372,0.090067,0.171267,-0.000467,0.273467,0*%
%AMIconStar4*4,1,8,-0.311733,0.311733,0,0.202533,0.311733,0.311733,0.202533,0,0.311733,-0.311733,0,-0.202533,-0.304407,-0.311733,-0.202533,0,-0.311733,0.311733,0*4,0,8,0.233333,-0.233333,0.1512,0,0.233333,0.233333,0,0.1512,-0.233333,0.233333,-0.1512,0,-0.233333,-0.233333,0,-0.1512,0.233333,-0.233333,0*%
%AMIconPlus*4,1,12,0.1736,-0.28,-0.1736,-0.28,-0.1736,-0.1736,-0.28,-0.1736,-0.28,0.1736,-0.1736,0.1736,-0.1736,0.28,0.1736,0.28,0.1736,0.1736,0.28,0.1736,0.28,-0.1736,0.1736,-0.1736,0.1736,-0.28,0*4,0,12,0.126933,-0.233333,0.126933,-0.126933,0.233333,-0.126933,0.233333,0.126933,0.126933,0.126933,0.126933,0.233333,-0.126933,0.233333,-0.126933,0.126933,-0.233333,0.126933,-0.233333,-0.126933,-0.126933,-0.126933,-0.126933,-0.233333,0.126933,-0.233333,0*%
%AMIconX*4,1,16,0.28,-0.28,0.076347,-0.28,0,-0.203653,-0.076347,-0.28,-0.28,-0.28,-0.28,-0.076347,-0.203653,0,-0.28,0.076347,-0.28,0.28,-0.076347,0.28,0,0.203653,0.076347,0.28,0.28,0.28,0.28,0.076347,0.203653,0,0.28,-0.076347,0.28,-0.28,0*4,0,16,0.23352,-0.23296,0.23352,-0.095853,0.137107,0.000093,0.23352,0.095853,0.23352,0.2331,0.095853,0.2331,0,0.137107,-0.095853,0.2331,-0.23352,0.2331,-0.23352,0.095853,-0.137107,0.000093,-0.23352,-0.095853,-0.23352,-0.23296,-0.095853,-0.23296,0,-0.137107,0.095853,-0.23296,0.23352,-0.23296,0*%
%AMIconDiamond*4,1,4,0,-0.364,-0.364,0,0,0.364,0.364,0,0,-0.364,0*4,0,4,0,-0.284807,0.284807,0,0,0.28504,-0.284807,0,0,-0.284807,0*%
%AMIconRect2*4,1,6,0.28,-0.28,-0.28,-0.28,-0.28,0.28,-0.23352,0.2331,-0.233333,-0.233333,0.23352,-0.233333,0.28,-0.28,0*4,1,6,0.28,-0.28,0.23352,-0.233333,0.23352,0.2331,-0.23352,0.2331,-0.28,0.28,0.28,0.28,0.28,-0.28,0*4,1,6,0.186853,-0.186667,-0.186667,-0.186667,-0.186667,0.186853,-0.14,0.140187,-0.14,-0.14,0.140187,-0.14,0.186853,-0.186667,0*4,1,6,0.186853,-0.186667,0.140187,-0.14,0.140187,0.140187,-0.14,0.140187,-0.186667,0.186853,0.186853,0.186853,0.186853,-0.186667,0*%
%AMCharA*4,1,8,-0.170893,-0.26096,-0.21448,-0.244347,-0.021187,0.26096,0.0224,0.26096,0.21448,-0.244347,0.170893,-0.26096,0.10696,-0.09268,-0.106587,-0.09268,-0.170893,-0.26096,0*4,0,3,-0.088667,-0.046013,0.089133,-0.046013,0.000467,0.18732,-0.088667,-0.046013,0*%
%AMCharB*4,1,17,-0.183587,-0.26516,-0.183587,0.26516,0.046947,0.26516,0.123293,0.241453,0.15596,0.212427,0.183587,0.159787,0.1834,0.093053,0.160067,0.04732,0.132627,0.01792,0.121053,0.01176,0.132627,0.005413,0.160067,-0.023987,0.1834,-0.06972,0.183587,-0.159787,0.15596,-0.212427,0.123293,-0.24164,0.046947,-0.26516,-0.183587,-0.26516,0*4,0,10,-0.13692,-0.218493,0.043213,-0.218493,0.103413,-0.1988,0.120213,-0.182187,0.139347,-0.14392,0.139347,-0.08596,0.120213,-0.048347,0.103413,-0.03164,0.043213,-0.012133,-0.13692,-0.012133,-0.13692,-0.218493,0*4,0,10,-0.13692,0.034533,0.04312,0.034533,0.103413,0.054973,0.120213,0.071773,0.139347,0.109293,0.139347,0.143733,0.120213,0.182187,0.103413,0.1988,0.043213,0.218493,-0.13692,0.218493,-0.13692,0.034533,0*%
%AMCharC*4,1,36,-0.038547,-0.26516,-0.100707,-0.23576,-0.15176,-0.182933,-0.175467,-0.1344,-0.19992,-0.057867,-0.19992,0.057867,-0.17416,0.1372,-0.147373,0.189093,-0.094547,0.240333,-0.038547,0.26516,0.053947,0.26516,0.116293,0.23576,0.167253,0.182933,0.19992,0.1162,0.158013,0.09576,0.127213,0.158853,0.08596,0.200107,0.048627,0.218493,-0.03304,0.218493,-0.070467,0.200107,-0.111627,0.158853,-0.131693,0.118067,-0.153253,0.05404,-0.153253,-0.05404,-0.131693,-0.118067,-0.111627,-0.158853,-0.070467,-0.200013,-0.03304,-0.218493,0.048627,-0.218493,0.08596,-0.200013,0.127213,-0.158853,0.158013,-0.09576,0.19992,-0.1162,0.167253,-0.182933,0.116293,-0.23576,0.053947,-0.26516,-0.038547,-0.26516,0*%
%AMCharD*4,1,12,-0.1848,-0.26516,-0.1848,0.26516,-0.000093,0.26516,0.076347,0.241453,0.13552,0.183307,0.16016,0.134493,0.1848,0.057867,0.1848,-0.057867,0.158853,-0.137573,0.131507,-0.188907,0.076347,-0.24164,-0.000093,-0.26516,-0.1848,-0.26516,0*4,0,12,-0.138133,-0.218493,-0.003733,-0.218493,0.056467,-0.198987,0.095667,-0.158853,0.116573,-0.11788,0.138133,-0.05404,0.138133,0.05404,0.116573,0.11788,0.095667,0.158853,0.056467,0.198987,-0.003733,0.218493,-0.138133,0.218493,-0.138133,-0.218493,0*%
%AMCharE*4,1,12,-0.173133,-0.26516,-0.173133,0.26516,0.173133,0.26516,0.173133,0.218493,-0.126467,0.218493,-0.126467,0.034533,0.05824,0.034533,0.05824,-0.012133,-0.126467,-0.012133,-0.126467,-0.218493,0.173133,-0.218493,0.173133,-0.26516,-0.173133,-0.26516,0*%
%AMCharF*4,1,11,-0.173133,-0.26516,-0.173133,0.26516,-0.126467,0.26516,0.173133,0.26516,0.173133,0.218493,-0.126467,0.218493,-0.126467,0.034533,0.05824,0.034533,0.05824,-0.012133,-0.126467,-0.012133,-0.126467,-0.26516,-0.173133,-0.26516,0*%
%ADD10IconRect*%
%ADD11C,0.616X0.522667*%
%ADD12IconTriangle*%
%ADD13IconStar6*%
%ADD14IconStar4*%
%ADD15IconPlus*%
%ADD16IconX*%
%ADD17IconDiamond*%
%ADD18IconRect2*%
%ADD19CharA*%
%ADD20CharB*%
%ADD21CharC*%
%ADD22CharD*%
%ADD23CharE*%
%ADD24CharF*%
G75*


G04 Drill Drawing Start*
G54D10*
G01X25404387Y-16078888D03*
G54D11*
G01X24343953Y-21679601D03*
G54D12*
G01X17695500Y-21659599D03*
G01X18203500Y-21659599D03*
G54D13*
G01X22215951Y-13843701D03*
G01X22915949Y-13843701D03*
G54D14*
G01X22932980Y-16015401D03*
G01X23181900Y-16015401D03*
G01X23430820Y-16015401D03*
G54D15*
G01X20451400Y-13729401D03*
G01X20705400Y-13729401D03*
G01X20959400Y-13729401D03*
G01X21213400Y-13729401D03*
G54D16*
G01X15396800Y-21844701D03*
G01X15396800Y-13716701D03*
G01X29836700Y-21844701D03*
G01X29836700Y-13716701D03*
G54D17*
G01X15875806Y-15540700D03*
G01X15875806Y-14940702D03*
G01X19235794Y-16140699D03*
G01X19235794Y-14340703D03*
G01X22340944Y-13589701D03*
G01X22790956Y-13589701D03*
G54D18*
G01X20787953Y-21679598D03*
G01X21295953Y-21679601D03*
G01X21803953Y-21679601D03*
G01X22311953Y-21679601D03*
G01X22819953Y-21679601D03*
G01X23327953Y-21679601D03*
G01X23835953Y-21679601D03*
G54D19*
G01X16345695Y-17996601D03*
G01X17165708Y-17996601D03*
G01X18167237Y-17996601D03*
G01X18987251Y-17996601D03*
G01X19988780Y-17996601D03*
G01X20808794Y-17996601D03*
G01X21810323Y-17996601D03*
G01X22630337Y-17996601D03*
G01X23631866Y-17996601D03*
G01X24451879Y-17996601D03*
G01X25453409Y-17996601D03*
G01X26273422Y-17996601D03*
G01X27274952Y-17996601D03*
G01X28094965Y-17996601D03*
G01X29083793Y-17996601D03*
G01X29903807Y-17996601D03*
G54D20*
G01X25404413Y-13538888D03*
G01X25658413Y-16078888D03*
G01X25658413Y-13538888D03*
G01X25912413Y-16078888D03*
G01X25912413Y-13538888D03*
G01X26166413Y-16078888D03*
G01X26166413Y-13538888D03*
G01X26411002Y-21463615D03*
G01X26420413Y-16078888D03*
G01X26420413Y-13538888D03*
G01X26661014Y-21463615D03*
G01X26674413Y-16078888D03*
G01X26674413Y-13538888D03*
G01X26911001Y-21463615D03*
G01X26928413Y-16078888D03*
G01X26928413Y-13538888D03*
G01X27161013Y-21463615D03*
G01X27182413Y-16078888D03*
G01X27182413Y-13538888D03*
G01X27411000Y-21463615D03*
G01X27436413Y-16078888D03*
G01X27436413Y-13538888D03*
G01X27661012Y-21463615D03*
G01X27690413Y-16078888D03*
G01X27690413Y-13538888D03*
G01X27910999Y-21463615D03*
G01X27944413Y-16078888D03*
G01X27944413Y-13538888D03*
G01X28161011Y-21463615D03*
G01X28198413Y-16078888D03*
G01X28198413Y-13538888D03*
G01X28410998Y-21463615D03*
G01X28452413Y-16078888D03*
G01X28452413Y-13538888D03*
G01X28706413Y-16078888D03*
G01X28706413Y-13538888D03*
G01X28960413Y-16078888D03*
G01X28960413Y-13538888D03*
G54D21*
G01X20229788Y-16214702D03*
G01X21045326Y-17216402D03*
G01X21645325Y-17516401D03*
G01X22607708Y-16177402D03*
G01X23403896Y-16560904D03*
G01X23606931Y-15915401D03*
G01X23703895Y-16460904D03*
G01X24157705Y-16577401D03*
G01X25203409Y-18246601D03*
G01X25754387Y-15578889D03*
G01X26428414Y-18678883D03*
G01X26674413Y-19628881D03*
G01X26678413Y-18878883D03*
G01X26836504Y-17446602D03*
G01X26911001Y-16545474D03*
G01X27036503Y-17996601D03*
G01X27111001Y-19945467D03*
G01X27178412Y-19628881D03*
G01X27261000Y-20295466D03*
G01X27424411Y-20278880D03*
G01X27452415Y-17928885D03*
G01X27536413Y-16628887D03*
G01X27540413Y-21078878D03*
G01X27648414Y-18278884D03*
G01X27736412Y-17078886D03*
G01X27778411Y-21096204D03*
G01X27778411Y-20278880D03*
G01X27794966Y-18046601D03*
G01X27936412Y-17928885D03*
G01X27998413Y-17678885D03*
G01X28002414Y-17328886D03*
G01X28202413Y-17128886D03*
G01X28252413Y-16628887D03*
G01X28368428Y-17660902D03*
G01X28418301Y-18885398D03*
G01X28860413Y-16178888D03*
G01X28983501Y-16916403D03*
G01X28994411Y-15888884D03*
G01X29094410Y-16988881D03*
G54D22*
G01X15889001Y-18667694D03*
G01X15889052Y-19887707D03*
G01X16489000Y-18467695D03*
G01X17088948Y-19887707D03*
G01X17088999Y-18667694D03*
G01X17710544Y-18667694D03*
G01X17710595Y-19887707D03*
G01X18310543Y-18467695D03*
G01X18910491Y-19887707D03*
G01X18910542Y-18667694D03*
G01X19532087Y-18667694D03*
G01X19532138Y-19887707D03*
G01X20132086Y-18467695D03*
G01X20732034Y-19887707D03*
G01X20732085Y-18667694D03*
G01X21353630Y-18667694D03*
G01X21353681Y-19887707D03*
G01X21953629Y-18467695D03*
G01X22553577Y-19887707D03*
G01X22553627Y-18667694D03*
G01X23175173Y-18667694D03*
G01X23175223Y-19887707D03*
G01X23775171Y-18467695D03*
G01X24375119Y-19887707D03*
G01X24375170Y-18667694D03*
G01X24996716Y-18667694D03*
G01X24996766Y-19887707D03*
G01X25596714Y-18467695D03*
G01X26196662Y-19887707D03*
G01X26196713Y-18667694D03*
G01X26818258Y-18667694D03*
G01X26818309Y-19887707D03*
G01X27418257Y-18467695D03*
G01X28018205Y-19887707D03*
G01X28018256Y-18667694D03*
G01X28639801Y-18667694D03*
G01X28639852Y-19887707D03*
G01X29239800Y-18467695D03*
G01X29839748Y-19887707D03*
G01X29839799Y-18667694D03*
G54D23*
G01X15942900Y-18110901D03*
G01X15942900Y-17856901D03*
G01X16514401Y-17018701D03*
G01X16514401Y-16764701D03*
G01X17276401Y-17018701D03*
G01X17276401Y-16764701D03*
G01X17759000Y-18110901D03*
G01X17759000Y-17856901D03*
G01X18196244Y-17018701D03*
G01X18196244Y-16764701D03*
G01X18958244Y-17018701D03*
G01X18958244Y-16764701D03*
G01X19575100Y-18110901D03*
G01X19575100Y-17856901D03*
G01X19994200Y-16015401D03*
G01X20017787Y-17018701D03*
G01X20017787Y-16764701D03*
G01X20248200Y-16015401D03*
G01X20779787Y-17018701D03*
G01X20779787Y-16764701D03*
G01X21403900Y-18110901D03*
G01X21403900Y-17856901D03*
G01X21839330Y-17018701D03*
G01X21839330Y-16764701D03*
G01X21854750Y-16015401D03*
G01X22095542Y-16015401D03*
G01X22324650Y-16015401D03*
G01X22601330Y-17018701D03*
G01X22601330Y-16764701D03*
G01X23220000Y-18110901D03*
G01X23220000Y-17856901D03*
G01X23660873Y-17018701D03*
G01X23660873Y-16764701D03*
G01X24422873Y-17018701D03*
G01X24422873Y-16764701D03*
G01X25048800Y-18110901D03*
G01X25048800Y-17856901D03*
G01X25482416Y-17018701D03*
G01X25482416Y-16764701D03*
G01X26244416Y-17018701D03*
G01X26244416Y-16764701D03*
G01X26877600Y-18110901D03*
G01X26877600Y-17856901D03*
G01X27303958Y-17018701D03*
G01X27303958Y-16764701D03*
G01X28065958Y-17018701D03*
G01X28065958Y-16764701D03*
G01X28655600Y-16942501D03*
G01X28655600Y-16688501D03*
G01X28681000Y-18110901D03*
G01X28681000Y-17856901D03*
G01X29417600Y-16942501D03*
G01X29417600Y-16688501D03*
G54D24*
G01X16057200Y-17031401D03*
G01X16057200Y-16904401D03*
G01X16057200Y-16777401D03*
G01X16230709Y-17666401D03*
G01X16230709Y-17348901D03*
G01X17280694Y-17666401D03*
G01X17280694Y-17348901D03*
G01X17781404Y-17031401D03*
G01X17781404Y-16904401D03*
G01X17781404Y-16777401D03*
G01X18052252Y-17666401D03*
G01X18052252Y-17348901D03*
G01X19102237Y-17666401D03*
G01X19102237Y-17348901D03*
G01X19534004Y-17031401D03*
G01X19534004Y-16904401D03*
G01X19534004Y-16777401D03*
G01X19873794Y-17666401D03*
G01X19873794Y-17348901D03*
G01X20923780Y-17666401D03*
G01X20923780Y-17348901D03*
G01X21362804Y-17031401D03*
G01X21362804Y-16904401D03*
G01X21362804Y-16777401D03*
G01X21695337Y-17666401D03*
G01X21695337Y-17348901D03*
G01X22745323Y-17666401D03*
G01X22745323Y-17348901D03*
G01X23178904Y-17031401D03*
G01X23178904Y-16904401D03*
G01X23178904Y-16777401D03*
G01X23516880Y-17666401D03*
G01X23516880Y-17348901D03*
G01X24566865Y-17666401D03*
G01X24566865Y-17348901D03*
G01X25007704Y-17031401D03*
G01X25007704Y-16904401D03*
G01X25007704Y-16777401D03*
G01X25338423Y-17666401D03*
G01X25338423Y-17348901D03*
G01X26388408Y-17666401D03*
G01X26388408Y-17348901D03*
G01X26836504Y-17031401D03*
G01X26836504Y-16904401D03*
G01X26836504Y-16777401D03*
G01X27159966Y-17666401D03*
G01X27159966Y-17348901D03*
G01X28209951Y-17666401D03*
G01X28209951Y-17348901D03*
G01X28668300Y-17539401D03*
G01X28668300Y-17412401D03*
G01X28668300Y-17285401D03*
G01X29045007Y-17666401D03*
G01X29045007Y-17348901D03*
G01X30094993Y-17666401D03*
G01X30094993Y-17348901D03*
G04 Drill Drawing End*

M02*

